<svg width="700" height="700" viewBox="0 0 700 700" fill="none" xmlns="http://www.w3.org/2000/svg">
<path d="M350 0C156.88 0 0 156.881 0 350C0 543.119 156.88 700 350 700C543.12 700 700 543.119 700 350C700 156.881 543.12 0 350 0ZM350 30.4348C526.671 30.4348 669.565 173.329 669.565 350C669.565 526.671 526.671 669.565 350 669.565C173.329 669.565 30.4348 526.671 30.4348 350C30.4348 173.329 173.329 30.4348 350 30.4348ZM350 91.3043C291.261 91.3043 243.478 136.473 243.478 191.971C243.478 245.932 293.459 307.142 340.222 346.433C343.052 348.807 346.515 349.97 350 349.97C353.485 349.97 356.963 348.793 359.778 346.404C406.541 307.112 456.522 245.932 456.522 191.971C456.522 136.488 408.724 91.3196 350 91.3043ZM204.365 350.119C180.535 350.739 158.373 355.284 140.672 365.396C118.013 378.33 101.765 399.699 94.8412 425.493C87.4912 452.884 91.7029 483.052 106.403 508.267C126.764 543.206 163.147 563.014 199.669 563.014C216.301 563.014 232.972 558.907 248.174 550.234C295.439 523.192 323.771 449.21 334.545 388.965C335.854 381.676 331.722 374.475 324.737 371.964C288.481 358.934 244.081 349.086 204.365 350.119ZM495.665 350.119C455.952 349.086 411.558 358.934 375.293 371.964C368.308 374.475 364.146 381.676 365.455 388.965C376.214 449.21 404.561 523.223 451.826 550.234C467.013 558.907 483.683 563.014 500.331 563.014C536.838 563.014 573.22 543.221 593.627 508.267C608.327 483.052 612.523 452.899 605.189 425.493C598.28 399.684 581.987 378.346 559.328 365.396C541.627 355.284 519.493 350.739 495.665 350.119Z" fill="white"/>
</svg>
