<svg width="700" height="600" viewBox="0 0 700 600" fill="none" xmlns="http://www.w3.org/2000/svg">
<rect x="1.5" y="1.5" width="697" height="597" fill="black"/>
<rect x="1.5" y="1.5" width="697" height="597" stroke="black" stroke-width="3"/>
<path fill-rule="evenodd" clip-rule="evenodd" d="M312.721 268.408C294.991 268.408 280.618 282.776 280.618 300.5C280.618 318.224 294.991 332.592 312.721 332.592H345.691V300.5V268.408H312.721ZM393.412 252.796L394.279 252.796C412.009 252.796 426.382 238.428 426.382 220.704C426.382 202.98 412.009 188.612 394.279 188.612H361.309V252.796L393.412 252.796ZM420.448 260.602C433.429 252.077 442 237.391 442 220.704C442 194.358 420.635 173 394.279 173H361.309H353.5H345.691H312.721C286.365 173 265 194.358 265 220.704C265 237.391 273.571 252.077 286.552 260.602C273.571 269.128 265 283.813 265 300.5C265 317.187 273.571 331.872 286.552 340.398C273.571 348.923 265 363.609 265 380.296C265 406.697 286.636 428 312.936 428C339.476 428 361.309 406.503 361.309 379.862V348.204V340.398V335.796C369.785 343.505 381.05 348.204 393.412 348.204H394.279C420.635 348.204 442 326.846 442 300.5C442 283.813 433.429 269.128 420.448 260.602ZM394.279 268.408L393.412 268.408C375.682 268.408 361.309 282.776 361.309 300.5C361.309 318.224 375.682 332.592 393.412 332.592H394.279C412.009 332.592 426.382 318.224 426.382 300.5C426.382 282.776 412.009 268.408 394.279 268.408ZM280.618 380.296C280.618 362.572 294.991 348.204 312.721 348.204H345.691V379.862C345.691 397.771 330.961 412.388 312.936 412.388C295.151 412.388 280.618 397.965 280.618 380.296ZM345.691 252.796H312.721C294.991 252.796 280.618 238.428 280.618 220.704C280.618 202.98 294.991 188.612 312.721 188.612H345.691V252.796Z" fill="white"/>
</svg>
