<svg width="700" height="700" viewBox="0 0 700 700" fill="none" xmlns="http://www.w3.org/2000/svg">
<path d="M115.5 56C82.642 56 56 82.642 56 115.5V584.5C56 617.358 82.642 644 115.5 644H584.5C617.358 644 644 617.358 644 584.5V115.5C644 82.642 617.358 56 584.5 56H115.5ZM588 84C592.046 85.386 599.329 88.487 605.938 95.375C615.57 105.385 617.641 116.987 618.188 121.188C568.082 171.42 517.985 221.647 467.879 271.879C481.879 325.079 546.273 281.673 546.273 308.273C546.273 371.273 462.273 346.084 455.273 403.484C451.073 434.284 451.079 463.679 418.879 495.879C365.679 549.079 285.748 555.805 214.348 488.605C214.208 488.465 214.05 488.311 213.91 488.031C148.67 417.051 155.829 338.245 208.469 285.605C240.669 253.405 270.063 253.411 300.863 249.211C358.263 242.211 333.047 158.211 396.047 158.211C422.647 158.211 379.269 222.605 432.469 236.605L434.137 238.273L588 84ZM352.242 288.121L331.516 308.848L392.848 370.289L413.711 349.453L352.242 288.121ZM293.59 345.242L272.727 366.105L334.168 427.41L354.895 406.711L293.59 345.242Z" fill="white"/>
</svg>
